<?xml version="1.0" encoding="UTF-8"?><svg id="Layer_1" xmlns="http://www.w3.org/2000/svg" viewBox="0 0 3369 1970"><defs><style>.cls-1{fill:#292289;}.cls-2{fill:#43e3a1;}.cls-3{fill:#4e5ba5;}</style></defs><path class="cls-2" d="m307.38,369.5c-47.09,0-85.67,38.58-85.67,85.67v471.18c0,47.09,38.58,85.67,85.67,85.67h728.19c47.09,0,85.67-38.58,85.67-85.67v-471.18c0-47.09-38.58-85.67-85.67-85.67H307.38Zm0,42.83h728.19c4.03,0,7.71.69,11.38,1.67l-346.03,349.03c-16.84,17.02-42.75,17.02-59.56,0l-74.5-75.44-19.7-19.95-250.83-253.98c3.55-.91,7.16-1.34,11.04-1.34h.01Zm-41.16,32.14l255,258.02-254.68,236.26c-1.16-3.95-2.01-7.99-2.01-12.38v-471.18c0-3.77.81-7.25,1.67-10.71h.01Zm810.52,0c.87,3.46,1.67,6.93,1.67,10.71v471.18c0,4.38-.84,8.43-2.01,12.38l-254.68-236.61,255.01-257.67Zm-285.44,288.14l253.66,235.25c-3.05.66-6.1,1.34-9.37,1.34H307.4c-3.28,0-6.33-.67-9.37-1.34l253.34-234.92,59.56,60.24c33.07,33.47,87.39,33.43,120.47,0l59.9-60.57h-.01Z"/><path class="cls-3" d="m1365.02,1026.83c-47.09,0-85.67,38.58-85.67,85.67v471.18c0,47.09,38.58,85.67,85.67,85.67h728.19c47.09,0,85.67-38.58,85.67-85.67v-471.18c0-47.09-38.58-85.67-85.67-85.67h-728.19Zm0,42.83h728.19c4.03,0,7.71.69,11.38,1.67l-346.03,349.03c-16.84,17.02-42.75,17.02-59.56,0l-74.5-75.44-19.7-19.95-250.83-253.98c3.55-.91,7.16-1.34,11.04-1.34h.01Zm-41.16,32.14l255,258.02-254.68,236.26c-1.16-3.95-2.01-7.99-2.01-12.38v-471.18c0-3.77.81-7.25,1.67-10.71h.01Zm810.52,0c.87,3.46,1.67,6.93,1.67,10.71v471.18c0,4.38-.84,8.43-2.01,12.38l-254.68-236.61,255.01-257.67Zm-285.44,288.14l253.66,235.25c-3.05.66-6.1,1.34-9.37,1.34h-728.19c-3.28,0-6.33-.67-9.37-1.34l253.34-234.92,59.56,60.24c33.07,33.47,87.39,33.43,120.47,0l59.9-60.57h-.01Z"/><path class="cls-1" d="m2414.66,369.5c-47.09,0-85.67,38.58-85.67,85.67v471.18c0,47.09,38.58,85.67,85.67,85.67h728.19c47.09,0,85.67-38.58,85.67-85.67v-471.18c0-47.09-38.58-85.67-85.67-85.67h-728.19Zm0,42.83h728.19c4.03,0,7.71.69,11.38,1.67l-346.03,349.03c-16.84,17.02-42.75,17.02-59.56,0l-74.5-75.44-19.7-19.95-250.83-253.98c3.55-.91,7.16-1.34,11.04-1.34h.01Zm-41.16,32.14l255,258.02-254.68,236.26c-1.16-3.95-2.01-7.99-2.01-12.38v-471.18c0-3.77.81-7.25,1.67-10.71h.01Zm810.52,0c.87,3.46,1.67,6.93,1.67,10.71v471.18c0,4.38-.84,8.43-2.01,12.38l-254.68-236.61,255.01-257.67Zm-285.44,288.14l253.66,235.25c-3.05.66-6.1,1.34-9.37,1.34h-728.19c-3.28,0-6.33-.67-9.37-1.34l253.34-234.92,59.56,60.24c33.07,33.47,87.39,33.43,120.47,0l59.9-60.57h-.01Z"/></svg>