<?xml version="1.0" encoding="UTF-8"?><svg id="Layer_1" xmlns="http://www.w3.org/2000/svg" viewBox="0 0 3328.06 2120.39"><defs><style>.cls-1{fill:none;stroke:#00e79b;stroke-width:15px;}.cls-1,.cls-2{stroke-miterlimit:10;}.cls-3,.cls-4{fill:#00e79b;}.cls-2{fill:#4e5ba5;stroke:#201f45;}.cls-5{fill:#201f45;}.cls-5,.cls-4{fill-rule:evenodd;}</style></defs><g><path class="cls-5" d="m3070.65,157.15h-1182.76c-22.94.07-44.93,9.21-61.15,25.42-16.24,16.21-25.39,38.18-25.49,61.12v1646.31c.08,22.95,9.23,44.94,25.47,61.18,16.22,16.22,38.22,25.38,61.18,25.45h1182.76c22.95-.07,44.95-9.23,61.18-25.45,16.24-16.24,25.38-38.22,25.47-61.18V243.7c-.1-22.94-9.25-44.92-25.49-61.12-16.22-16.21-38.21-25.35-61.15-25.42h0Zm-1182.76-43.68h1182.76c34.52.1,67.6,13.84,92.02,38.24,24.41,24.4,38.18,57.47,38.3,91.99v1646.31c-.1,34.54-13.85,67.62-38.27,92.05-24.41,24.41-57.51,38.17-92.05,38.27h-1182.76c-34.52-.11-67.59-13.88-91.99-38.3-24.4-24.41-38.14-57.49-38.22-92.02V243.7c.08-34.54,13.84-67.63,38.27-92.06,24.41-24.41,57.51-38.17,92.05-38.25l-.1.09Zm1072.41,263.82c.87,0,1.7.35,2.3.97.62.62.97,1.46.98,2.33v166.12c.01.87-.31,1.7-.9,2.31-.62.59-1.44.93-2.3.91h-962.13c-.87-.01-1.7-.36-2.3-1-.63-.6-.98-1.44-.98-2.31v-166.04c-.01-.88.32-1.74.94-2.37.63-.6,1.47-.94,2.34-.93h962.05Zm0,432.79c1.79.04,3.24,1.5,3.28,3.3v166.15c.01.86-.31,1.68-.9,2.31-.62.59-1.44.9-2.3.88h-962.13c-1.79-.03-3.25-1.47-3.28-3.28v-166.07c0-.87.35-1.7.98-2.3.6-.63,1.43-.98,2.3-1h962.05Zm39.63-21.82c4.8,7.5,7.33,16.21,7.32,25.11v166.15c-.01,12.42-4.98,24.33-13.77,33.09l-.15.15c-8.76,8.75-20.64,13.69-33.02,13.71h-962.06c-25.91-.06-46.9-21.05-46.95-46.96v-166.15c-.01-8.9,2.52-17.61,7.32-25.11-4.8-7.5-7.33-16.22-7.32-25.11v-166.06c-.01-8.89,2.54-17.61,7.33-25.1-4.81-7.5-7.35-16.24-7.33-25.16v-166.24c-.03-12.47,4.94-24.41,13.77-33.21,8.76-8.79,20.67-13.74,33.09-13.76h962.13c25.91.03,46.93,21.03,46.95,46.96v166.12c0,8.9-2.55,17.6-7.36,25.09,4.82,7.52,7.38,16.25,7.36,25.17v166.17c.01,8.89-2.52,17.61-7.32,25.11h.01Zm-1001.69-21.89c-.69.01-1.36-.2-1.92-.59l-.38-.38c-.63-.6-.98-1.44-.98-2.3v-166.01c-.01-.87.32-1.72.94-2.34.63-.62,1.47-.95,2.34-.95h962.06c1.79.04,3.24,1.5,3.28,3.3v166.15c-.01.87-.36,1.7-.98,2.31-.63.59-1.47.93-2.34.93l-962.02-.11Z"/><path class="cls-4" d="m2612.73,1594.52c-31.85-41.49-81.17-65.82-133.47-65.82h0c-44.64-.06-87.45,17.68-118.97,49.29-36.98,36.98-54.64,89.06-47.82,140.91,6.83,51.85,37.38,97.57,82.68,123.72,45.29,26.15,100.18,29.74,148.5,9.73,48.31-20.02,84.57-61.38,98.1-111.89,13.53-50.52,2.8-104.45-29.03-145.95Zm-9.99,118.66c-5.05,38.39-27.68,72.26-61.21,91.61-33.53,19.37-74.16,22.03-109.94,7.21-35.77-14.82-62.62-45.43-72.65-82.83-10.01-37.4-2.08-77.33,21.5-108.06,23.57-30.72,60.1-48.73,98.82-48.73,33.04-.04,64.74,13.08,88.08,36.47h0c27.37,27.39,40.47,65.95,35.41,104.33Z"/><path class="cls-4" d="m2757.58,701.85h.01c-12.07,0-21.85-9.77-21.85-21.83s9.77-21.83,21.85-21.83h156.7-.01c12.06,0,21.83,9.77,21.83,21.83s-9.77,21.83-21.83,21.83h-156.7Z"/><path class="cls-4" d="m2757.58,918.24h.01c-12.07,0-21.85-9.77-21.85-21.83s9.77-21.85,21.85-21.85h156.7-.01c12.06,0,21.83,9.77,21.83,21.85s-9.77,21.83-21.83,21.83h-156.7Z"/><path class="cls-4" d="m2757.58,485.42h.01c-5.92.18-11.64-2.03-15.89-6.14-4.23-4.11-6.63-9.77-6.63-15.68s2.4-11.57,6.63-15.69c4.25-4.11,9.97-6.32,15.89-6.14h156.7-.01c5.9-.18,11.64,2.03,15.89,6.14,4.23,4.12,6.63,9.77,6.63,15.69s-2.4,11.57-6.63,15.68c-4.25,4.11-9.98,6.32-15.89,6.14h-156.7Z"/></g><path class="cls-2" d="m181.64,969.25c-45.22,0-82.27,37.05-82.27,82.27v452.49c0,45.22,37.05,82.27,82.27,82.27h699.3c45.22,0,82.27-37.05,82.27-82.27v-452.49c0-45.22-37.05-82.27-82.27-82.27H181.64Zm0,41.13h699.3c3.87,0,7.4.66,10.93,1.61l-332.3,335.18c-16.18,16.35-41.05,16.35-57.2,0l-71.55-72.45-18.92-19.16-240.88-243.91c3.41-.88,6.88-1.28,10.6-1.28h0Zm-39.52,30.86l244.88,247.79-244.57,226.89c-1.11-3.79-1.93-7.68-1.93-11.89v-452.49c0-3.62.77-6.96,1.61-10.29h.01Zm778.36,0c.83,3.32,1.61,6.66,1.61,10.29v452.49c0,4.21-.81,8.1-1.93,11.89l-244.57-227.22,244.89-247.45Zm-274.12,276.71l243.6,225.91c-2.93.64-5.85,1.28-9,1.28H181.66c-3.15,0-6.08-.65-9-1.28l243.29-225.6,57.2,57.85c31.76,32.14,83.92,32.1,115.69,0l57.52-58.17h0Z"/><g><line class="cls-1" x1="1089.65" y1="1249.58" x2="1523.61" y2="1249.58"/><polygon class="cls-3" points="1501.72 1324.37 1631.24 1249.58 1501.72 1174.78 1501.72 1324.37"/></g></svg>