<?xml version="1.0" encoding="UTF-8"?><svg id="Layer_1" xmlns="http://www.w3.org/2000/svg" viewBox="0 0 3287.01 2094.23"><defs><style>.cls-1{fill:#0f054c;}</style></defs><path class="cls-1" d="m398.59,421.4c-1.87.29-3.27.51-4.21.65-.94.14-1.76.22-2.48.22-4.46,0-8.09-1.26-10.89-3.78-2.8-2.52-4.21-5.86-4.21-10.03,0-3.45,1.22-6.47,3.67-9.06,2.44-2.59,5.97-4.53,10.57-5.83l64.08-17.26c1.58-.43,3.13-.76,4.64-.97,1.51-.22,3.05-.32,4.64-.32,2.73,0,4.89,1.26,6.47,3.78,1.58,2.52,2.37,5.93,2.37,10.25v233.45h34.52c12.8,0,20.93,1.05,24.38,3.13,3.45,2.09,5.18,6.01,5.18,11.76,0,5.18-1.44,9.06-4.31,11.65-2.88,2.59-7.2,3.88-12.95,3.88h-129.02c-5.76,0-10.07-1.29-12.95-3.88-2.88-2.59-4.31-6.47-4.31-11.65,0-5.75,1.72-9.67,5.18-11.76,3.45-2.08,11.58-3.13,24.38-3.13h35.82v-210.79l-40.56,9.71Z"/><path class="cls-1" d="m715.32,660.03c-27.04,0-48.51-12.76-64.4-38.3-15.9-25.53-23.84-60.52-23.84-104.97s7.95-79.22,23.84-104.75c15.89-25.53,37.36-38.3,64.4-38.3s48.54,12.8,64.51,38.4c15.97,25.6,23.95,60.49,23.95,104.64s-7.98,79.07-23.95,104.75-37.47,38.51-64.51,38.51Zm0-255.45c-16.54,0-29.42,9.79-38.62,29.37-9.21,19.58-13.81,47.22-13.81,82.93s4.6,63.6,13.81,83.25c9.2,19.65,22.08,29.48,38.62,29.48s29.63-9.82,38.84-29.48c9.2-19.65,13.81-47.41,13.81-83.25s-4.61-63.35-13.81-82.93c-9.21-19.58-22.15-29.37-38.84-29.37Z"/><path class="cls-1" d="m980.49,660.03c-27.04,0-48.51-12.76-64.4-38.3-15.9-25.53-23.84-60.52-23.84-104.97s7.95-79.22,23.84-104.75c15.89-25.53,37.36-38.3,64.4-38.3s48.54,12.8,64.51,38.4c15.97,25.6,23.95,60.49,23.95,104.64s-7.98,79.07-23.95,104.75-37.47,38.51-64.51,38.51Zm0-255.45c-16.54,0-29.42,9.79-38.62,29.37-9.21,19.58-13.81,47.22-13.81,82.93s4.6,63.6,13.81,83.25c9.2,19.65,22.08,29.48,38.62,29.48s29.63-9.82,38.84-29.48c9.2-19.65,13.81-47.41,13.81-83.25s-4.61-63.35-13.81-82.93c-9.21-19.58-22.15-29.37-38.84-29.37Z"/><path class="cls-1" d="m1194.09,421.4c-1.87.29-3.27.51-4.21.65-.94.14-1.76.22-2.48.22-4.46,0-8.09-1.26-10.89-3.78-2.8-2.52-4.21-5.86-4.21-10.03,0-3.45,1.22-6.47,3.67-9.06,2.44-2.59,5.97-4.53,10.57-5.83l64.08-17.26c1.58-.43,3.13-.76,4.64-.97,1.51-.22,3.05-.32,4.64-.32,2.73,0,4.89,1.26,6.47,3.78,1.58,2.52,2.37,5.93,2.37,10.25v233.45h34.52c12.8,0,20.93,1.05,24.38,3.13,3.45,2.09,5.18,6.01,5.18,11.76,0,5.18-1.44,9.06-4.31,11.65-2.88,2.59-7.2,3.88-12.95,3.88h-129.02c-5.76,0-10.07-1.29-12.95-3.88-2.88-2.59-4.31-6.47-4.31-11.65,0-5.75,1.72-9.67,5.18-11.76,3.45-2.08,11.58-3.13,24.38-3.13h35.82v-210.79l-40.56,9.71Z"/><path class="cls-1" d="m1459.25,421.4c-1.87.29-3.27.51-4.21.65-.94.14-1.76.22-2.48.22-4.46,0-8.09-1.26-10.89-3.78-2.8-2.52-4.21-5.86-4.21-10.03,0-3.45,1.22-6.47,3.67-9.06,2.44-2.59,5.97-4.53,10.57-5.83l64.08-17.26c1.58-.43,3.13-.76,4.64-.97,1.51-.22,3.05-.32,4.64-.32,2.73,0,4.89,1.26,6.47,3.78,1.58,2.52,2.37,5.93,2.37,10.25v233.45h34.52c12.8,0,20.93,1.05,24.38,3.13,3.45,2.09,5.18,6.01,5.18,11.76,0,5.18-1.44,9.06-4.31,11.65-2.88,2.59-7.2,3.88-12.95,3.88h-129.02c-5.76,0-10.07-1.29-12.95-3.88-2.88-2.59-4.31-6.47-4.31-11.65,0-5.75,1.72-9.67,5.18-11.76,3.45-2.08,11.58-3.13,24.38-3.13h35.82v-210.79l-40.56,9.71Z"/><path class="cls-1" d="m1724.41,421.4c-1.87.29-3.27.51-4.21.65-.94.14-1.76.22-2.48.22-4.46,0-8.09-1.26-10.89-3.78-2.8-2.52-4.21-5.86-4.21-10.03,0-3.45,1.22-6.47,3.67-9.06,2.44-2.59,5.97-4.53,10.57-5.83l64.08-17.26c1.58-.43,3.13-.76,4.64-.97,1.51-.22,3.05-.32,4.64-.32,2.73,0,4.89,1.26,6.47,3.78,1.58,2.52,2.37,5.93,2.37,10.25v233.45h34.52c12.8,0,20.93,1.05,24.38,3.13,3.45,2.09,5.18,6.01,5.18,11.76,0,5.18-1.44,9.06-4.31,11.65-2.88,2.59-7.2,3.88-12.95,3.88h-129.02c-5.76,0-10.07-1.29-12.95-3.88-2.88-2.59-4.31-6.47-4.31-11.65,0-5.75,1.72-9.67,5.18-11.76,3.45-2.08,11.58-3.13,24.38-3.13h35.82v-210.79l-40.56,9.71Z"/><path class="cls-1" d="m2041.14,660.03c-27.04,0-48.51-12.76-64.4-38.3-15.9-25.53-23.84-60.52-23.84-104.97s7.95-79.22,23.84-104.75c15.89-25.53,37.36-38.3,64.4-38.3s48.54,12.8,64.51,38.4c15.97,25.6,23.95,60.49,23.95,104.64s-7.98,79.07-23.95,104.75c-15.97,25.67-37.47,38.51-64.51,38.51Zm0-255.45c-16.54,0-29.42,9.79-38.62,29.37-9.21,19.58-13.81,47.22-13.81,82.93s4.6,63.6,13.81,83.25c9.2,19.65,22.08,29.48,38.62,29.48s29.63-9.82,38.84-29.48c9.2-19.65,13.81-47.41,13.81-83.25s-4.61-63.35-13.81-82.93c-9.21-19.58-22.15-29.37-38.84-29.37Z"/><path class="cls-1" d="m2306.3,660.03c-27.04,0-48.51-12.76-64.4-38.3-15.9-25.53-23.84-60.52-23.84-104.97s7.95-79.22,23.84-104.75c15.89-25.53,37.36-38.3,64.4-38.3s48.54,12.8,64.51,38.4c15.97,25.6,23.95,60.49,23.95,104.64s-7.98,79.07-23.95,104.75c-15.97,25.67-37.47,38.51-64.51,38.51Zm0-255.45c-16.54,0-29.42,9.79-38.62,29.37-9.21,19.58-13.81,47.22-13.81,82.93s4.6,63.6,13.81,83.25c9.2,19.65,22.08,29.48,38.62,29.48s29.63-9.82,38.84-29.48c9.2-19.65,13.81-47.41,13.81-83.25s-4.61-63.35-13.81-82.93c-9.21-19.58-22.15-29.37-38.84-29.37Z"/><path class="cls-1" d="m2519.9,421.4c-1.87.29-3.27.51-4.21.65-.94.14-1.76.22-2.48.22-4.46,0-8.09-1.26-10.89-3.78-2.8-2.52-4.21-5.86-4.21-10.03,0-3.45,1.22-6.47,3.67-9.06,2.44-2.59,5.97-4.53,10.57-5.83l64.08-17.26c1.58-.43,3.13-.76,4.64-.97,1.51-.22,3.05-.32,4.64-.32,2.73,0,4.89,1.26,6.47,3.78,1.58,2.52,2.37,5.93,2.37,10.25v233.45h34.52c12.8,0,20.93,1.05,24.38,3.13,3.45,2.09,5.18,6.01,5.18,11.76,0,5.18-1.44,9.06-4.31,11.65-2.88,2.59-7.2,3.88-12.95,3.88h-129.02c-5.76,0-10.07-1.29-12.95-3.88-2.88-2.59-4.31-6.47-4.31-11.65,0-5.75,1.72-9.67,5.18-11.76,3.45-2.08,11.58-3.13,24.38-3.13h35.82v-210.79l-40.56,9.71Z"/><path class="cls-1" d="m2836.63,660.03c-27.04,0-48.51-12.76-64.4-38.3-15.9-25.53-23.84-60.52-23.84-104.97s7.95-79.22,23.84-104.75c15.89-25.53,37.36-38.3,64.4-38.3s48.54,12.8,64.51,38.4c15.97,25.6,23.95,60.49,23.95,104.64s-7.98,79.07-23.95,104.75c-15.97,25.67-37.47,38.51-64.51,38.51Zm0-255.45c-16.54,0-29.42,9.79-38.62,29.37-9.21,19.58-13.81,47.22-13.81,82.93s4.6,63.6,13.81,83.25c9.2,19.65,22.08,29.48,38.62,29.48s29.63-9.82,38.84-29.48c9.2-19.65,13.81-47.41,13.81-83.25s-4.61-63.35-13.81-82.93c-9.21-19.58-22.15-29.37-38.84-29.37Z"/><path class="cls-1" d="m398.59,951.64c-1.87.29-3.27.51-4.21.65-.94.14-1.76.22-2.48.22-4.46,0-8.09-1.26-10.89-3.78-2.8-2.52-4.21-5.86-4.21-10.03,0-3.45,1.22-6.47,3.67-9.06,2.44-2.59,5.97-4.53,10.57-5.83l64.08-17.26c1.58-.43,3.13-.76,4.64-.97,1.51-.22,3.05-.32,4.64-.32,2.73,0,4.89,1.26,6.47,3.78,1.58,2.52,2.37,5.93,2.37,10.25v233.45h34.52c12.8,0,20.93,1.05,24.38,3.13,3.45,2.09,5.18,6.01,5.18,11.76,0,5.18-1.44,9.06-4.31,11.65-2.88,2.59-7.2,3.88-12.95,3.88h-129.02c-5.76,0-10.07-1.29-12.95-3.88-2.88-2.59-4.31-6.47-4.31-11.65,0-5.75,1.72-9.67,5.18-11.76,3.45-2.08,11.58-3.13,24.38-3.13h35.82v-210.79l-40.56,9.71Z"/><path class="cls-1" d="m715.32,1190.27c-27.04,0-48.51-12.76-64.4-38.3-15.9-25.53-23.84-60.52-23.84-104.97s7.95-79.22,23.84-104.75c15.89-25.53,37.36-38.3,64.4-38.3s48.54,12.8,64.51,38.4c15.97,25.6,23.95,60.49,23.95,104.64s-7.98,79.07-23.95,104.75-37.47,38.51-64.51,38.51Zm0-255.45c-16.54,0-29.42,9.79-38.62,29.37-9.21,19.58-13.81,47.22-13.81,82.93s4.6,63.6,13.81,83.25c9.2,19.65,22.08,29.48,38.62,29.48s29.63-9.82,38.84-29.48c9.2-19.65,13.81-47.41,13.81-83.25s-4.61-63.35-13.81-82.93c-9.21-19.58-22.15-29.37-38.84-29.37Z"/><path class="cls-1" d="m980.49,1190.27c-27.04,0-48.51-12.76-64.4-38.3-15.9-25.53-23.84-60.52-23.84-104.97s7.95-79.22,23.84-104.75c15.89-25.53,37.36-38.3,64.4-38.3s48.54,12.8,64.51,38.4c15.97,25.6,23.95,60.49,23.95,104.64s-7.98,79.07-23.95,104.75-37.47,38.51-64.51,38.51Zm0-255.45c-16.54,0-29.42,9.79-38.62,29.37-9.21,19.58-13.81,47.22-13.81,82.93s4.6,63.6,13.81,83.25c9.2,19.65,22.08,29.48,38.62,29.48s29.63-9.82,38.84-29.48c9.2-19.65,13.81-47.41,13.81-83.25s-4.61-63.35-13.81-82.93c-9.21-19.58-22.15-29.37-38.84-29.37Z"/><path class="cls-1" d="m1245.65,1190.27c-27.04,0-48.51-12.76-64.4-38.3-15.9-25.53-23.84-60.52-23.84-104.97s7.95-79.22,23.84-104.75c15.89-25.53,37.36-38.3,64.4-38.3s48.54,12.8,64.51,38.4c15.97,25.6,23.95,60.49,23.95,104.64s-7.98,79.07-23.95,104.75-37.47,38.51-64.51,38.51Zm0-255.45c-16.54,0-29.42,9.79-38.62,29.37-9.21,19.58-13.81,47.22-13.81,82.93s4.6,63.6,13.81,83.25c9.2,19.65,22.08,29.48,38.62,29.48s29.63-9.82,38.84-29.48c9.2-19.65,13.81-47.41,13.81-83.25s-4.61-63.35-13.81-82.93c-9.21-19.58-22.15-29.37-38.84-29.37Z"/><path class="cls-1" d="m1459.25,951.64c-1.87.29-3.27.51-4.21.65-.94.14-1.76.22-2.48.22-4.46,0-8.09-1.26-10.89-3.78-2.8-2.52-4.21-5.86-4.21-10.03,0-3.45,1.22-6.47,3.67-9.06,2.44-2.59,5.97-4.53,10.57-5.83l64.08-17.26c1.58-.43,3.13-.76,4.64-.97,1.51-.22,3.05-.32,4.64-.32,2.73,0,4.89,1.26,6.47,3.78,1.58,2.52,2.37,5.93,2.37,10.25v233.45h34.52c12.8,0,20.93,1.05,24.38,3.13,3.45,2.09,5.18,6.01,5.18,11.76,0,5.18-1.44,9.06-4.31,11.65-2.88,2.59-7.2,3.88-12.95,3.88h-129.02c-5.76,0-10.07-1.29-12.95-3.88-2.88-2.59-4.31-6.47-4.31-11.65,0-5.75,1.72-9.67,5.18-11.76,3.45-2.08,11.58-3.13,24.38-3.13h35.82v-210.79l-40.56,9.71Z"/><path class="cls-1" d="m1724.41,951.64c-1.87.29-3.27.51-4.21.65-.94.14-1.76.22-2.48.22-4.46,0-8.09-1.26-10.89-3.78-2.8-2.52-4.21-5.86-4.21-10.03,0-3.45,1.22-6.47,3.67-9.06,2.44-2.59,5.97-4.53,10.57-5.83l64.08-17.26c1.58-.43,3.13-.76,4.64-.97,1.51-.22,3.05-.32,4.64-.32,2.73,0,4.89,1.26,6.47,3.78,1.58,2.52,2.37,5.93,2.37,10.25v233.45h34.52c12.8,0,20.93,1.05,24.38,3.13,3.45,2.09,5.18,6.01,5.18,11.76,0,5.18-1.44,9.06-4.31,11.65-2.88,2.59-7.2,3.88-12.95,3.88h-129.02c-5.76,0-10.07-1.29-12.95-3.88-2.88-2.59-4.31-6.47-4.31-11.65,0-5.75,1.72-9.67,5.18-11.76,3.45-2.08,11.58-3.13,24.38-3.13h35.82v-210.79l-40.56,9.71Z"/><path class="cls-1" d="m2041.14,1190.27c-27.04,0-48.51-12.76-64.4-38.3-15.9-25.53-23.84-60.52-23.84-104.97s7.95-79.22,23.84-104.75c15.89-25.53,37.36-38.3,64.4-38.3s48.54,12.8,64.51,38.4c15.97,25.6,23.95,60.49,23.95,104.64s-7.98,79.07-23.95,104.75c-15.97,25.67-37.47,38.51-64.51,38.51Zm0-255.45c-16.54,0-29.42,9.79-38.62,29.37-9.21,19.58-13.81,47.22-13.81,82.93s4.6,63.6,13.81,83.25c9.2,19.65,22.08,29.48,38.62,29.48s29.63-9.82,38.84-29.48c9.2-19.65,13.81-47.41,13.81-83.25s-4.61-63.35-13.81-82.93c-9.21-19.58-22.15-29.37-38.84-29.37Z"/><path class="cls-1" d="m2306.3,1190.27c-27.04,0-48.51-12.76-64.4-38.3-15.9-25.53-23.84-60.52-23.84-104.97s7.95-79.22,23.84-104.75c15.89-25.53,37.36-38.3,64.4-38.3s48.54,12.8,64.51,38.4c15.97,25.6,23.95,60.49,23.95,104.64s-7.98,79.07-23.95,104.75c-15.97,25.67-37.47,38.51-64.51,38.51Zm0-255.45c-16.54,0-29.42,9.79-38.62,29.37-9.21,19.58-13.81,47.22-13.81,82.93s4.6,63.6,13.81,83.25c9.2,19.65,22.08,29.48,38.62,29.48s29.63-9.82,38.84-29.48c9.2-19.65,13.81-47.41,13.81-83.25s-4.61-63.35-13.81-82.93c-9.21-19.58-22.15-29.37-38.84-29.37Z"/><path class="cls-1" d="m2519.9,951.64c-1.87.29-3.27.51-4.21.65-.94.14-1.76.22-2.48.22-4.46,0-8.09-1.26-10.89-3.78-2.8-2.52-4.21-5.86-4.21-10.03,0-3.45,1.22-6.47,3.67-9.06,2.44-2.59,5.97-4.53,10.57-5.83l64.08-17.26c1.58-.43,3.13-.76,4.64-.97,1.51-.22,3.05-.32,4.64-.32,2.73,0,4.89,1.26,6.47,3.78,1.58,2.52,2.37,5.93,2.37,10.25v233.45h34.52c12.8,0,20.93,1.05,24.38,3.13,3.45,2.09,5.18,6.01,5.18,11.76,0,5.18-1.44,9.06-4.31,11.65-2.88,2.59-7.2,3.88-12.95,3.88h-129.02c-5.76,0-10.07-1.29-12.95-3.88-2.88-2.59-4.31-6.47-4.31-11.65,0-5.75,1.72-9.67,5.18-11.76,3.45-2.08,11.58-3.13,24.38-3.13h35.82v-210.79l-40.56,9.71Z"/><path class="cls-1" d="m2785.07,951.64c-1.87.29-3.27.51-4.21.65-.94.14-1.76.22-2.48.22-4.46,0-8.09-1.26-10.89-3.78-2.8-2.52-4.21-5.86-4.21-10.03,0-3.45,1.22-6.47,3.67-9.06,2.44-2.59,5.97-4.53,10.57-5.83l64.08-17.26c1.58-.43,3.13-.76,4.64-.97,1.51-.22,3.05-.32,4.64-.32,2.73,0,4.89,1.26,6.47,3.78,1.58,2.52,2.37,5.93,2.37,10.25v233.45h34.52c12.8,0,20.93,1.05,24.38,3.13,3.45,2.09,5.18,6.01,5.18,11.76,0,5.18-1.44,9.06-4.31,11.65-2.88,2.59-7.2,3.88-12.95,3.88h-129.02c-5.76,0-10.07-1.29-12.95-3.88-2.88-2.59-4.31-6.47-4.31-11.65,0-5.75,1.72-9.67,5.18-11.76,3.45-2.08,11.58-3.13,24.38-3.13h35.82v-210.79l-40.56,9.71Z"/><path class="cls-1" d="m450.16,1720.51c-27.04,0-48.51-12.76-64.4-38.3-15.9-25.53-23.84-60.52-23.84-104.97s7.95-79.22,23.84-104.75c15.89-25.53,37.36-38.3,64.4-38.3s48.54,12.8,64.51,38.4c15.97,25.6,23.95,60.49,23.95,104.64s-7.98,79.07-23.95,104.75-37.47,38.51-64.51,38.51Zm0-255.45c-16.54,0-29.42,9.79-38.62,29.37-9.21,19.58-13.81,47.22-13.81,82.93s4.6,63.6,13.81,83.25c9.2,19.65,22.08,29.48,38.62,29.48s29.63-9.82,38.84-29.48c9.2-19.65,13.81-47.41,13.81-83.25s-4.61-63.35-13.81-82.93c-9.21-19.58-22.15-29.37-38.84-29.37Z"/><path class="cls-1" d="m715.32,1720.51c-27.04,0-48.51-12.76-64.4-38.3-15.9-25.53-23.84-60.52-23.84-104.97s7.95-79.22,23.84-104.75c15.89-25.53,37.36-38.3,64.4-38.3s48.54,12.8,64.51,38.4c15.97,25.6,23.95,60.49,23.95,104.64s-7.98,79.07-23.95,104.75-37.47,38.51-64.51,38.51Zm0-255.45c-16.54,0-29.42,9.79-38.62,29.37-9.21,19.58-13.81,47.22-13.81,82.93s4.6,63.6,13.81,83.25c9.2,19.65,22.08,29.48,38.62,29.48s29.63-9.82,38.84-29.48c9.2-19.65,13.81-47.41,13.81-83.25s-4.61-63.35-13.81-82.93c-9.21-19.58-22.15-29.37-38.84-29.37Z"/><path class="cls-1" d="m928.92,1481.88c-1.87.29-3.27.51-4.21.65-.94.14-1.76.22-2.48.22-4.46,0-8.09-1.26-10.89-3.78-2.8-2.52-4.21-5.86-4.21-10.03,0-3.45,1.22-6.47,3.67-9.06,2.44-2.59,5.97-4.53,10.57-5.83l64.08-17.26c1.58-.43,3.13-.76,4.64-.97,1.51-.22,3.05-.32,4.64-.32,2.73,0,4.89,1.26,6.47,3.78,1.58,2.52,2.37,5.93,2.37,10.25v233.45h34.52c12.8,0,20.93,1.05,24.38,3.13,3.45,2.09,5.18,6.01,5.18,11.76,0,5.18-1.44,9.06-4.31,11.65-2.88,2.59-7.2,3.88-12.95,3.88h-129.02c-5.76,0-10.07-1.29-12.95-3.88-2.88-2.59-4.31-6.47-4.31-11.65,0-5.75,1.72-9.67,5.18-11.76,3.45-2.08,11.58-3.13,24.38-3.13h35.82v-210.79l-40.56,9.71Z"/><path class="cls-1" d="m1194.09,1481.88c-1.87.29-3.27.51-4.21.65-.94.14-1.76.22-2.48.22-4.46,0-8.09-1.26-10.89-3.78-2.8-2.52-4.21-5.86-4.21-10.03,0-3.45,1.22-6.47,3.67-9.06,2.44-2.59,5.97-4.53,10.57-5.83l64.08-17.26c1.58-.43,3.13-.76,4.64-.97,1.51-.22,3.05-.32,4.64-.32,2.73,0,4.89,1.26,6.47,3.78,1.58,2.52,2.37,5.93,2.37,10.25v233.45h34.52c12.8,0,20.93,1.05,24.38,3.13,3.45,2.09,5.18,6.01,5.18,11.76,0,5.18-1.44,9.06-4.31,11.65-2.88,2.59-7.2,3.88-12.95,3.88h-129.02c-5.76,0-10.07-1.29-12.95-3.88-2.88-2.59-4.31-6.47-4.31-11.65,0-5.75,1.72-9.67,5.18-11.76,3.45-2.08,11.58-3.13,24.38-3.13h35.82v-210.79l-40.56,9.71Z"/><path class="cls-1" d="m1459.25,1481.88c-1.87.29-3.27.51-4.21.65-.94.14-1.76.22-2.48.22-4.46,0-8.09-1.26-10.89-3.78-2.8-2.52-4.21-5.86-4.21-10.03,0-3.45,1.22-6.47,3.67-9.06,2.44-2.59,5.97-4.53,10.57-5.83l64.08-17.26c1.58-.43,3.13-.76,4.64-.97,1.51-.22,3.05-.32,4.64-.32,2.73,0,4.89,1.26,6.47,3.78,1.58,2.52,2.37,5.93,2.37,10.25v233.45h34.52c12.8,0,20.93,1.05,24.38,3.13,3.45,2.09,5.18,6.01,5.18,11.76,0,5.18-1.44,9.06-4.31,11.65-2.88,2.59-7.2,3.88-12.95,3.88h-129.02c-5.76,0-10.07-1.29-12.95-3.88-2.88-2.59-4.31-6.47-4.31-11.65,0-5.75,1.72-9.67,5.18-11.76,3.45-2.08,11.58-3.13,24.38-3.13h35.82v-210.79l-40.56,9.71Z"/><path class="cls-1" d="m1775.98,1720.51c-27.04,0-48.51-12.76-64.4-38.3-15.9-25.53-23.84-60.52-23.84-104.97s7.95-79.22,23.84-104.75c15.89-25.53,37.36-38.3,64.4-38.3s48.54,12.8,64.51,38.4c15.97,25.6,23.95,60.49,23.95,104.64s-7.98,79.07-23.95,104.75-37.47,38.51-64.51,38.51Zm0-255.45c-16.54,0-29.42,9.79-38.62,29.37-9.21,19.58-13.81,47.22-13.81,82.93s4.6,63.6,13.81,83.25c9.2,19.65,22.08,29.48,38.62,29.48s29.63-9.82,38.84-29.48c9.2-19.65,13.81-47.41,13.81-83.25s-4.61-63.35-13.81-82.93c-9.21-19.58-22.15-29.37-38.84-29.37Z"/><path class="cls-1" d="m2041.14,1720.51c-27.04,0-48.51-12.76-64.4-38.3-15.9-25.53-23.84-60.52-23.84-104.97s7.95-79.22,23.84-104.75c15.89-25.53,37.36-38.3,64.4-38.3s48.54,12.8,64.51,38.4c15.97,25.6,23.95,60.49,23.95,104.64s-7.98,79.07-23.95,104.75c-15.97,25.67-37.47,38.51-64.51,38.51Zm0-255.45c-16.54,0-29.42,9.79-38.62,29.37-9.21,19.58-13.81,47.22-13.81,82.93s4.6,63.6,13.81,83.25c9.2,19.65,22.08,29.48,38.62,29.48s29.63-9.82,38.84-29.48c9.2-19.65,13.81-47.41,13.81-83.25s-4.61-63.35-13.81-82.93c-9.21-19.58-22.15-29.37-38.84-29.37Z"/><path class="cls-1" d="m2254.74,1481.88c-1.87.29-3.27.51-4.21.65-.94.14-1.76.22-2.48.22-4.46,0-8.09-1.26-10.89-3.78-2.8-2.52-4.21-5.86-4.21-10.03,0-3.45,1.22-6.47,3.67-9.06,2.44-2.59,5.97-4.53,10.57-5.83l64.08-17.26c1.58-.43,3.13-.76,4.64-.97,1.51-.22,3.05-.32,4.64-.32,2.73,0,4.89,1.26,6.47,3.78,1.58,2.52,2.37,5.93,2.37,10.25v233.45h34.52c12.8,0,20.93,1.05,24.38,3.13,3.45,2.09,5.18,6.01,5.18,11.76,0,5.18-1.44,9.06-4.31,11.65-2.88,2.59-7.2,3.88-12.95,3.88h-129.02c-5.76,0-10.07-1.29-12.95-3.88-2.88-2.59-4.31-6.47-4.31-11.65,0-5.75,1.72-9.67,5.18-11.76,3.45-2.08,11.58-3.13,24.38-3.13h35.82v-210.79l-40.56,9.71Z"/><path class="cls-1" d="m2571.47,1720.51c-27.04,0-48.51-12.76-64.4-38.3-15.9-25.53-23.84-60.52-23.84-104.97s7.95-79.22,23.84-104.75c15.89-25.53,37.36-38.3,64.4-38.3s48.54,12.8,64.51,38.4c15.97,25.6,23.95,60.49,23.95,104.64s-7.98,79.07-23.95,104.75c-15.97,25.67-37.47,38.51-64.51,38.51Zm0-255.45c-16.54,0-29.42,9.79-38.62,29.37-9.21,19.58-13.81,47.22-13.81,82.93s4.6,63.6,13.81,83.25c9.2,19.65,22.08,29.48,38.62,29.48s29.63-9.82,38.84-29.48c9.2-19.65,13.81-47.41,13.81-83.25s-4.61-63.35-13.81-82.93c-9.21-19.58-22.15-29.37-38.84-29.37Z"/><path class="cls-1" d="m2785.07,1481.88c-1.87.29-3.27.51-4.21.65-.94.14-1.76.22-2.48.22-4.46,0-8.09-1.26-10.89-3.78-2.8-2.52-4.21-5.86-4.21-10.03,0-3.45,1.22-6.47,3.67-9.06,2.44-2.59,5.97-4.53,10.57-5.83l64.08-17.26c1.58-.43,3.13-.76,4.64-.97,1.51-.22,3.05-.32,4.64-.32,2.73,0,4.89,1.26,6.47,3.78,1.58,2.52,2.37,5.93,2.37,10.25v233.45h34.52c12.8,0,20.93,1.05,24.38,3.13,3.45,2.09,5.18,6.01,5.18,11.76,0,5.18-1.44,9.06-4.31,11.65-2.88,2.59-7.2,3.88-12.95,3.88h-129.02c-5.76,0-10.07-1.29-12.95-3.88-2.88-2.59-4.31-6.47-4.31-11.65,0-5.75,1.72-9.67,5.18-11.76,3.45-2.08,11.58-3.13,24.38-3.13h35.82v-210.79l-40.56,9.71Z"/></svg>