<?xml version="1.0" encoding="UTF-8"?><svg id="Layer_1" xmlns="http://www.w3.org/2000/svg" viewBox="0 0 3369 967"><defs><style>.cls-1{fill:#00e79b;}.cls-2{fill:#0f054c;}.cls-3{fill:#292289;}.cls-4{fill:#4e5ba5;stroke:#201f45;stroke-miterlimit:10;}</style></defs><g><path class="cls-2" d="m239.08,240.41c-41.85,0-76.14,34.29-76.14,76.14v418.77c0,41.85,34.29,76.14,76.14,76.14h647.19c41.85,0,76.14-34.29,76.14-76.14v-418.77c0-41.85-34.29-76.14-76.14-76.14H239.08Zm0,38.07h647.19c3.58,0,6.85.61,10.11,1.49l-307.53,310.2c-14.97,15.13-37.99,15.13-52.94,0l-66.22-67.05-17.51-17.73-222.92-225.73c3.15-.81,6.37-1.19,9.81-1.19h0Zm-36.58,28.56l226.63,229.32-226.34,209.98c-1.03-3.51-1.79-7.1-1.79-11.01v-418.77c0-3.35.72-6.44,1.49-9.52h0Zm720.35,0c.77,3.07,1.49,6.16,1.49,9.52v418.77c0,3.9-.75,7.5-1.79,11.01l-226.34-210.28,226.64-229.01Zm-253.69,256.09l225.44,209.08c-2.71.59-5.42,1.19-8.32,1.19H239.09c-2.91,0-5.62-.6-8.33-1.19l225.16-208.79,52.94,53.54c29.39,29.75,77.67,29.71,107.07,0l53.24-53.83h0Z"/><path class="cls-1" d="m573.33,508.49c-49.88,0-90.32,40.44-90.32,90.32s40.44,90.32,90.32,90.32,90.32-40.44,90.32-90.32-40.44-90.32-90.32-90.32Zm50.02,62.8l-63.73,63.73c-1.2,1.2-2.78,1.8-4.35,1.8s-3.15-.6-4.35-1.8l-27.6-27.6c-2.4-2.4-2.4-6.3,0-8.7,2.4-2.4,6.3-2.4,8.7,0l23.25,23.25,59.38-59.38c2.4-2.4,6.3-2.4,8.7,0,2.4,2.4,2.4,6.3,0,8.7h0Z"/></g><g><path class="cls-4" d="m1311.02,240.41c-41.85,0-76.14,34.29-76.14,76.14v418.77c0,41.85,34.29,76.14,76.14,76.14h647.19c41.85,0,76.14-34.29,76.14-76.14v-418.77c0-41.85-34.29-76.14-76.14-76.14h-647.19Zm0,38.07h647.19c3.58,0,6.85.61,10.11,1.49l-307.53,310.2c-14.97,15.13-37.99,15.13-52.94,0l-66.22-67.05-17.51-17.73-222.92-225.73c3.15-.81,6.37-1.19,9.81-1.19h0Zm-36.58,28.56l226.63,229.32-226.34,209.98c-1.03-3.51-1.79-7.1-1.79-11.01v-418.77c0-3.35.72-6.44,1.49-9.52h0Zm720.35,0c.77,3.07,1.49,6.16,1.49,9.52v418.77c0,3.9-.75,7.5-1.79,11.01l-226.34-210.28,226.64-229.01Zm-253.69,256.09l225.44,209.08c-2.71.59-5.42,1.19-8.32,1.19h-647.19c-2.91,0-5.62-.6-8.33-1.19l225.16-208.79,52.94,53.54c29.39,29.75,77.67,29.71,107.07,0l53.24-53.83h0Z"/><path class="cls-1" d="m1645.27,508.49c-49.88,0-90.32,40.44-90.32,90.32s40.44,90.32,90.32,90.32,90.32-40.44,90.32-90.32-40.44-90.32-90.32-90.32Zm50.02,62.8l-63.73,63.73c-1.2,1.2-2.78,1.8-4.35,1.8s-3.15-.6-4.35-1.8l-27.6-27.6c-2.4-2.4-2.4-6.3,0-8.7,2.4-2.4,6.3-2.4,8.7,0l23.25,23.25,59.38-59.38c2.4-2.4,6.3-2.4,8.7,0,2.4,2.4,2.4,6.3,0,8.7h0Z"/></g><g><path class="cls-3" d="m2382.95,240.41c-41.85,0-76.14,34.29-76.14,76.14v418.77c0,41.85,34.29,76.14,76.14,76.14h647.19c41.85,0,76.14-34.29,76.14-76.14v-418.77c0-41.85-34.29-76.14-76.14-76.14h-647.19Zm0,38.07h647.19c3.58,0,6.85.61,10.11,1.49l-307.53,310.2c-14.97,15.13-37.99,15.13-52.94,0l-66.22-67.05-17.51-17.73-222.92-225.73c3.15-.81,6.37-1.19,9.81-1.19h0Zm-36.58,28.56l226.63,229.32-226.34,209.98c-1.03-3.51-1.79-7.1-1.79-11.01v-418.77c0-3.35.72-6.44,1.49-9.52h0Zm720.35,0c.77,3.07,1.49,6.16,1.49,9.52v418.77c0,3.9-.75,7.5-1.79,11.01l-226.34-210.28,226.64-229.01Zm-253.69,256.09l225.44,209.08c-2.71.59-5.42,1.19-8.32,1.19h-647.19c-2.91,0-5.62-.6-8.33-1.19l225.16-208.79,52.94,53.54c29.39,29.75,77.67,29.71,107.07,0l53.24-53.83h0Z"/><path class="cls-1" d="m2717.21,508.49c-49.88,0-90.32,40.44-90.32,90.32s40.44,90.32,90.32,90.32,90.32-40.44,90.32-90.32-40.44-90.32-90.32-90.32Zm50.02,62.8l-63.73,63.73c-1.2,1.2-2.78,1.8-4.35,1.8s-3.15-.6-4.35-1.8l-27.6-27.6c-2.4-2.4-2.4-6.3,0-8.7,2.4-2.4,6.3-2.4,8.7,0l23.25,23.25,59.38-59.38c2.4-2.4,6.3-2.4,8.7,0,2.4,2.4,2.4,6.3,0,8.7h0Z"/></g></svg>