<?xml version="1.0" encoding="UTF-8"?><svg id="Layer_1" xmlns="http://www.w3.org/2000/svg" viewBox="0 0 3287.01 2094.23"><defs><style>.cls-1{fill:#00e79b;}.cls-2{fill:red;}.cls-3{fill:#0f054c;}</style></defs><g><path class="cls-3" d="m470.07,596.5c0,33.49-9.29,60.97-27.87,82.42-18.58,21.45-42.35,32.18-71.32,32.18s-52.41-10.76-71.05-32.27c-18.64-21.51-27.96-48.96-27.96-82.33s9.23-61.27,27.69-82.6c18.46-21.33,42.23-32,71.32-32s52.74,10.76,71.32,32.27c18.58,21.51,27.87,48.96,27.87,82.33Zm-99.19,88.74c20.54,0,36.7-7.87,48.5-23.61,11.79-15.74,17.69-37.45,17.69-65.13s-5.9-49.39-17.69-65.13c-11.8-15.74-27.96-23.61-48.5-23.61s-36.83,7.81-48.5,23.43c-11.67,15.62-17.51,37.39-17.51,65.31s5.9,49.39,17.69,65.13c11.79,15.74,27.9,23.61,48.31,23.61Z"/><path class="cls-3" d="m603.74,679.56c5.99,0,10.33,1.01,13.02,3.03,2.69,2.02,4.03,5.23,4.03,9.63,0,4.89-1.28,8.31-3.85,10.27s-7.46,2.93-14.67,2.93h-89.66c-4.16,0-7.33-1.13-9.53-3.39s-3.3-5.53-3.3-9.81,1.07-7.46,3.21-9.53c2.14-2.08,5.47-3.12,9.99-3.12h23.65v-165.2h-12.83c-10.76,0-17.45-.95-20.08-2.84-2.63-1.89-3.94-5.35-3.94-10.36,0-4.28,1.1-7.55,3.3-9.81s5.38-3.39,9.53-3.39h84.89c29.7,0,52.26,5.75,67.66,17.24,15.4,11.49,23.1,28.42,23.1,50.79s-7.64,39.24-22.92,50.61c-15.28,11.37-37.89,17.05-67.84,17.05h-32.09v55.92h38.32Zm-38.32-165.2v85.08h34.29c19.19,0,33.55-3.54,43.09-10.63,9.53-7.09,14.3-17.79,14.3-32.09s-4.8-24.63-14.39-31.72c-9.6-7.09-23.93-10.63-43-10.63h-34.29Z"/><path class="cls-3" d="m752.99,562.03c-.25,9.17-1.32,15-3.21,17.51-1.9,2.51-5.59,3.76-11.09,3.76-4.28,0-7.49-1.13-9.63-3.39-2.14-2.26-3.21-5.59-3.21-9.99.24-3.79.37-6.66.37-8.62l1.83-60.51c.24-4.52,1.47-7.79,3.67-9.81s5.62-3.03,10.27-3.03h159.34c4.64,0,8.07,1.01,10.27,3.03s3.36,5.29,3.48,9.81l2.02,60.51c0,2.2.06,4.28.18,6.23.12,1.96.18,2.87.18,2.75,0,4.4-1.16,7.67-3.48,9.81-2.32,2.14-5.81,3.21-10.45,3.21-4.89,0-8.25-1.25-10.08-3.76-1.83-2.51-2.87-8.34-3.12-17.51l-1.83-47.67h-52.62v165.2h35.39c5.13,0,8.86,1.01,11.18,3.03,2.32,2.02,3.48,5.23,3.48,9.63s-1.1,7.55-3.3,9.81-5.38,3.39-9.53,3.39h-102.86c-4.16,0-7.33-1.13-9.53-3.39s-3.3-5.53-3.3-9.81c0-4.52,1.19-7.76,3.58-9.72,2.38-1.96,6.45-2.93,12.19-2.93h34.29v-165.2h-52.62l-1.83,47.67Z"/><path class="cls-3" d="m1102.64,679.56c9.41,0,15.43.89,18.06,2.66,2.63,1.77,3.94,5.1,3.94,9.99s-1.32,8.46-3.94,10.36c-2.63,1.89-8.65,2.84-18.06,2.84h-119.91c-4.4,0-7.76-1.1-10.08-3.3-2.32-2.2-3.48-5.5-3.48-9.9,0-4.89,1.34-8.22,4.03-9.99,2.69-1.77,8.74-2.66,18.15-2.66h41.44v-165.2h-41.44c-9.17,0-15.16-.95-17.97-2.84-2.81-1.89-4.22-5.35-4.22-10.36,0-4.52,1.16-7.85,3.48-9.99,2.32-2.14,5.8-3.21,10.45-3.21h128.16c4.4,0,7.73,1.1,9.99,3.3,2.26,2.2,3.39,5.5,3.39,9.9,0,5.01-1.38,8.46-4.13,10.36s-8.71,2.84-17.88,2.84h-41.44v165.2h41.44Z"/><path class="cls-3" d="m1371.44,596.5c0,33.49-9.29,60.97-27.87,82.42-18.58,21.45-42.35,32.18-71.32,32.18s-52.41-10.76-71.05-32.27c-18.64-21.51-27.96-48.96-27.96-82.33s9.23-61.27,27.69-82.6c18.46-21.33,42.23-32,71.32-32s52.74,10.76,71.32,32.27c18.58,21.51,27.87,48.96,27.87,82.33Zm-99.19,88.74c20.54,0,36.7-7.87,48.5-23.61,11.79-15.74,17.69-37.45,17.69-65.13s-5.9-49.39-17.69-65.13c-11.8-15.74-27.96-23.61-48.5-23.61s-36.83,7.81-48.5,23.43c-11.67,15.62-17.51,37.39-17.51,65.31s5.9,49.39,17.69,65.13c11.79,15.74,27.9,23.61,48.31,23.61Z"/><path class="cls-3" d="m1447.72,679.56h22.92c6.6,0,11.3.98,14.12,2.93,2.81,1.96,4.22,5.2,4.22,9.72,0,5.01-1.32,8.46-3.94,10.36-2.63,1.89-8.41,2.84-17.33,2.84h-54.46c-4.4,0-7.7-1.1-9.9-3.3s-3.3-5.5-3.3-9.9c0-4.89,1.25-8.22,3.76-9.99,2.5-1.77,7.36-2.66,14.58-2.66h3.48v-165.2h-4.58c-10.27,0-17.21-.98-20.81-2.93-3.61-1.96-5.41-5.38-5.41-10.27,0-4.52,1.56-7.79,4.68-9.81s8.16-3.03,15.13-3.03c4.89-.24,8.55-.37,11-.37h17.24c5.62,0,9.56.64,11.83,1.93,2.26,1.28,4.92,4.55,7.98,9.81l92.41,159.52v-144.85h-20.17c-6.6,0-11.4-1.07-14.39-3.21-3-2.14-4.49-5.47-4.49-9.99,0-5.01,1.28-8.46,3.85-10.36s7.94-2.84,16.14-2.84h52.62c4.4,0,7.67,1.1,9.81,3.3,2.14,2.2,3.21,5.5,3.21,9.9,0,4.89-1.32,8.31-3.94,10.27-2.63,1.96-7.43,2.93-14.39,2.93h-2.2v184.64c0,3.54-.83,5.99-2.48,7.33s-5.47,2.02-11.46,2.02-9.69-.34-11.09-1.01c-1.41-.67-3.76-3.82-7.06-9.44l-97.54-168.14v149.8Z"/><path class="cls-3" d="m1919.86,514.36h-26.77c-7.46,0-12.68-1.01-15.68-3.03-3-2.02-4.49-5.41-4.49-10.18,0-5.01,1.31-8.46,3.94-10.36,2.63-1.89,9.81-2.84,21.54-2.84h52.26c6.72,0,11.28.89,13.66,2.66s4.55,5.04,6.51,9.81l71.69,179.14h3.12c6.6,0,11.12.92,13.57,2.75,2.44,1.83,3.67,5.13,3.67,9.9,0,5.01-1.16,8.46-3.48,10.36-2.32,1.89-6.66,2.84-13.02,2.84h-49.87c-9.29,0-15.25-.95-17.88-2.84-2.63-1.89-3.94-5.35-3.94-10.36,0-4.64,1.44-7.91,4.31-9.81,2.87-1.89,8.28-2.84,16.23-2.84h17.05l-17.79-43.64h-93.14l-15.77,43.64h17.79c8.07,0,13.57.95,16.5,2.84s4.4,5.16,4.4,9.81c0,5.01-1.32,8.46-3.94,10.36-2.63,1.89-8.41,2.84-17.33,2.84h-48.22c-7.82,0-13.02-.95-15.59-2.84s-3.85-5.35-3.85-10.36,1.28-8.07,3.85-9.9,7.52-2.75,14.85-2.75h3.48l62.34-165.2Zm-9.35,97.18h74.99l-39.42-97.18-35.57,97.18Z"/><path class="cls-3" d="m470.07,1047.11c0,33.49-9.29,60.97-27.87,82.42-18.58,21.45-42.35,32.18-71.32,32.18s-52.41-10.76-71.05-32.27c-18.64-21.51-27.96-48.96-27.96-82.33s9.23-61.27,27.69-82.6c18.46-21.33,42.23-32,71.32-32s52.74,10.76,71.32,32.27c18.58,21.51,27.87,48.96,27.87,82.33Zm-99.19,88.74c20.54,0,36.7-7.87,48.5-23.61,11.79-15.74,17.69-37.45,17.69-65.13s-5.9-49.39-17.69-65.13c-11.8-15.74-27.96-23.61-48.5-23.61s-36.83,7.81-48.5,23.43c-11.67,15.62-17.51,37.39-17.51,65.31s5.9,49.39,17.69,65.13c11.79,15.74,27.9,23.61,48.31,23.61Z"/><path class="cls-3" d="m603.74,1130.17c5.99,0,10.33,1.01,13.02,3.03,2.69,2.02,4.03,5.23,4.03,9.63,0,4.89-1.28,8.31-3.85,10.27s-7.46,2.93-14.67,2.93h-89.66c-4.16,0-7.33-1.13-9.53-3.39s-3.3-5.53-3.3-9.81,1.07-7.46,3.21-9.53c2.14-2.08,5.47-3.12,9.99-3.12h23.65v-165.2h-12.83c-10.76,0-17.45-.95-20.08-2.84-2.63-1.89-3.94-5.35-3.94-10.36,0-4.28,1.1-7.55,3.3-9.81s5.38-3.39,9.53-3.39h84.89c29.7,0,52.26,5.75,67.66,17.24,15.4,11.49,23.1,28.42,23.1,50.79s-7.64,39.24-22.92,50.61c-15.28,11.37-37.89,17.05-67.84,17.05h-32.09v55.92h38.32Zm-38.32-165.2v85.08h34.29c19.19,0,33.55-3.54,43.09-10.63,9.53-7.09,14.3-17.79,14.3-32.09s-4.8-24.63-14.39-31.72c-9.6-7.09-23.93-10.63-43-10.63h-34.29Z"/><path class="cls-3" d="m752.99,1012.64c-.25,9.17-1.32,15-3.21,17.51-1.9,2.51-5.59,3.76-11.09,3.76-4.28,0-7.49-1.13-9.63-3.39-2.14-2.26-3.21-5.59-3.21-9.99.24-3.79.37-6.66.37-8.62l1.83-60.51c.24-4.52,1.47-7.79,3.67-9.81,2.2-2.02,5.62-3.03,10.27-3.03h159.34c4.64,0,8.07,1.01,10.27,3.03s3.36,5.29,3.48,9.81l2.02,60.51c0,2.2.06,4.28.18,6.23.12,1.96.18,2.87.18,2.75,0,4.4-1.16,7.67-3.48,9.81-2.32,2.14-5.81,3.21-10.45,3.21-4.89,0-8.25-1.25-10.08-3.76s-2.87-8.34-3.12-17.51l-1.83-47.67h-52.62v165.2h35.39c5.13,0,8.86,1.01,11.18,3.03,2.32,2.02,3.48,5.23,3.48,9.63s-1.1,7.55-3.3,9.81-5.38,3.39-9.53,3.39h-102.86c-4.16,0-7.33-1.13-9.53-3.39s-3.3-5.53-3.3-9.81c0-4.52,1.19-7.76,3.58-9.72,2.38-1.96,6.45-2.93,12.19-2.93h34.29v-165.2h-52.62l-1.83,47.67Z"/><path class="cls-3" d="m1102.64,1130.17c9.41,0,15.43.89,18.06,2.66,2.63,1.77,3.94,5.1,3.94,9.99s-1.32,8.46-3.94,10.36c-2.63,1.89-8.65,2.84-18.06,2.84h-119.91c-4.4,0-7.76-1.1-10.08-3.3-2.32-2.2-3.48-5.5-3.48-9.9,0-4.89,1.34-8.22,4.03-9.99,2.69-1.77,8.74-2.66,18.15-2.66h41.44v-165.2h-41.44c-9.17,0-15.16-.95-17.97-2.84-2.81-1.89-4.22-5.35-4.22-10.36,0-4.52,1.16-7.85,3.48-9.99,2.32-2.14,5.8-3.21,10.45-3.21h128.16c4.4,0,7.73,1.1,9.99,3.3,2.26,2.2,3.39,5.5,3.39,9.9,0,5.01-1.38,8.46-4.13,10.36s-8.71,2.84-17.88,2.84h-41.44v165.2h41.44Z"/><path class="cls-3" d="m1371.44,1047.11c0,33.49-9.29,60.97-27.87,82.42-18.58,21.45-42.35,32.18-71.32,32.18s-52.41-10.76-71.05-32.27c-18.64-21.51-27.96-48.96-27.96-82.33s9.23-61.27,27.69-82.6c18.46-21.33,42.23-32,71.32-32s52.74,10.76,71.32,32.27c18.58,21.51,27.87,48.96,27.87,82.33Zm-99.19,88.74c20.54,0,36.7-7.87,48.5-23.61,11.79-15.74,17.69-37.45,17.69-65.13s-5.9-49.39-17.69-65.13c-11.8-15.74-27.96-23.61-48.5-23.61s-36.83,7.81-48.5,23.43c-11.67,15.62-17.51,37.39-17.51,65.31s5.9,49.39,17.69,65.13c11.79,15.74,27.9,23.61,48.31,23.61Z"/><path class="cls-3" d="m1447.72,1130.17h22.92c6.6,0,11.3.98,14.12,2.93,2.81,1.96,4.22,5.2,4.22,9.72,0,5.01-1.32,8.46-3.94,10.36-2.63,1.89-8.41,2.84-17.33,2.84h-54.46c-4.4,0-7.7-1.1-9.9-3.3s-3.3-5.5-3.3-9.9c0-4.89,1.25-8.22,3.76-9.99,2.5-1.77,7.36-2.66,14.58-2.66h3.48v-165.2h-4.58c-10.27,0-17.21-.98-20.81-2.93-3.61-1.96-5.41-5.38-5.41-10.27,0-4.52,1.56-7.79,4.68-9.81s8.16-3.03,15.13-3.03c4.89-.24,8.55-.37,11-.37h17.24c5.62,0,9.56.64,11.83,1.93,2.26,1.28,4.92,4.55,7.98,9.81l92.41,159.52v-144.85h-20.17c-6.6,0-11.4-1.07-14.39-3.21-3-2.14-4.49-5.47-4.49-9.99,0-5.01,1.28-8.46,3.85-10.36s7.94-2.84,16.14-2.84h52.62c4.4,0,7.67,1.1,9.81,3.3,2.14,2.2,3.21,5.5,3.21,9.9,0,4.89-1.32,8.31-3.94,10.27-2.63,1.96-7.43,2.93-14.39,2.93h-2.2v184.64c0,3.54-.83,5.99-2.48,7.33s-5.47,2.02-11.46,2.02-9.69-.34-11.09-1.01c-1.41-.67-3.76-3.82-7.06-9.44l-97.54-168.14v149.8Z"/><path class="cls-3" d="m1946.07,1156.03h-82.14c-4.28,0-7.49-1.1-9.63-3.3-2.14-2.2-3.21-5.5-3.21-9.9,0-4.89,1.34-8.22,4.03-9.99,2.69-1.77,9.1-2.66,19.25-2.66h6.05v-165.2h-6.05c-9.41,0-15.47-.95-18.15-2.84-2.69-1.89-4.03-5.35-4.03-10.36,0-4.28,1.1-7.55,3.3-9.81s5.38-3.39,9.53-3.39h85.63c25.91,0,45.66,5.04,59.22,15.13,13.57,10.08,20.35,24.72,20.35,43.91,0,9.66-2.08,18.09-6.23,25.3-4.16,7.21-10.33,13.14-18.52,17.79,13.2,4.77,23.01,11.43,29.43,19.99,6.42,8.56,9.63,19.44,9.63,32.64,0,11.12-2.75,21.27-8.25,30.44-5.5,9.17-13.27,16.69-23.29,22.55-5.99,3.42-12.65,5.9-19.99,7.43s-17.73,2.29-31.17,2.29h-15.77Zm-36.85-123.58h38.32c17.36,0,30.22-2.75,38.6-8.25,8.37-5.5,12.56-14,12.56-25.49,0-10.88-3.79-19.22-11.37-25.03-7.58-5.81-18.46-8.71-32.64-8.71h-45.47v67.47Zm0,97.73h40.7c22.98,0,39.17-2.9,48.59-8.71,9.41-5.81,14.12-15.43,14.12-28.88s-4.49-23.22-13.48-28.97c-8.98-5.75-24.78-8.62-47.4-8.62h-42.54v75.18Z"/><path class="cls-3" d="m470.07,1497.73c0,33.49-9.29,60.97-27.87,82.42-18.58,21.45-42.35,32.18-71.32,32.18s-52.41-10.76-71.05-32.27c-18.64-21.51-27.96-48.96-27.96-82.33s9.23-61.27,27.69-82.6c18.46-21.33,42.23-32,71.32-32s52.74,10.76,71.32,32.27c18.58,21.51,27.87,48.96,27.87,82.33Zm-99.19,88.74c20.54,0,36.7-7.87,48.5-23.61,11.79-15.74,17.69-37.45,17.69-65.13s-5.9-49.39-17.69-65.13c-11.8-15.74-27.96-23.61-48.5-23.61s-36.83,7.81-48.5,23.43c-11.67,15.62-17.51,37.39-17.51,65.31s5.9,49.39,17.69,65.13c11.79,15.74,27.9,23.61,48.31,23.61Z"/><path class="cls-3" d="m603.74,1580.79c5.99,0,10.33,1.01,13.02,3.03,2.69,2.02,4.03,5.23,4.03,9.63,0,4.89-1.28,8.31-3.85,10.27s-7.46,2.93-14.67,2.93h-89.66c-4.16,0-7.33-1.13-9.53-3.39-2.2-2.26-3.3-5.53-3.3-9.81s1.07-7.46,3.21-9.53c2.14-2.08,5.47-3.12,9.99-3.12h23.65v-165.2h-12.83c-10.76,0-17.45-.95-20.08-2.84-2.63-1.89-3.94-5.35-3.94-10.36,0-4.28,1.1-7.55,3.3-9.81s5.38-3.39,9.53-3.39h84.89c29.7,0,52.26,5.75,67.66,17.24,15.4,11.49,23.1,28.42,23.1,50.79s-7.64,39.24-22.92,50.61c-15.28,11.37-37.89,17.05-67.84,17.05h-32.09v55.92h38.32Zm-38.32-165.2v85.08h34.29c19.19,0,33.55-3.54,43.09-10.63s14.3-17.79,14.3-32.09-4.8-24.63-14.39-31.72c-9.6-7.09-23.93-10.63-43-10.63h-34.29Z"/><path class="cls-3" d="m752.99,1463.26c-.25,9.17-1.32,15-3.21,17.51-1.9,2.51-5.59,3.76-11.09,3.76-4.28,0-7.49-1.13-9.63-3.39-2.14-2.26-3.21-5.59-3.21-9.99.24-3.79.37-6.66.37-8.62l1.83-60.51c.24-4.52,1.47-7.79,3.67-9.81s5.62-3.03,10.27-3.03h159.34c4.64,0,8.07,1.01,10.27,3.03s3.36,5.29,3.48,9.81l2.02,60.51c0,2.2.06,4.28.18,6.23.12,1.96.18,2.87.18,2.75,0,4.4-1.16,7.67-3.48,9.81-2.32,2.14-5.81,3.21-10.45,3.21-4.89,0-8.25-1.25-10.08-3.76-1.83-2.51-2.87-8.34-3.12-17.51l-1.83-47.67h-52.62v165.2h35.39c5.13,0,8.86,1.01,11.18,3.03,2.32,2.02,3.48,5.23,3.48,9.63s-1.1,7.55-3.3,9.81-5.38,3.39-9.53,3.39h-102.86c-4.16,0-7.33-1.13-9.53-3.39-2.2-2.26-3.3-5.53-3.3-9.81,0-4.52,1.19-7.76,3.58-9.72s6.45-2.93,12.19-2.93h34.29v-165.2h-52.62l-1.83,47.67Z"/><path class="cls-3" d="m1102.64,1580.79c9.41,0,15.43.89,18.06,2.66,2.63,1.77,3.94,5.1,3.94,9.99s-1.32,8.46-3.94,10.36c-2.63,1.89-8.65,2.84-18.06,2.84h-119.91c-4.4,0-7.76-1.1-10.08-3.3-2.32-2.2-3.48-5.5-3.48-9.9,0-4.89,1.34-8.22,4.03-9.99,2.69-1.77,8.74-2.66,18.15-2.66h41.44v-165.2h-41.44c-9.17,0-15.16-.95-17.97-2.84-2.81-1.89-4.22-5.35-4.22-10.36,0-4.52,1.16-7.85,3.48-9.99,2.32-2.14,5.8-3.21,10.45-3.21h128.16c4.4,0,7.73,1.1,9.99,3.3,2.26,2.2,3.39,5.5,3.39,9.9,0,5.01-1.38,8.46-4.13,10.36s-8.71,2.84-17.88,2.84h-41.44v165.2h41.44Z"/><path class="cls-3" d="m1371.44,1497.73c0,33.49-9.29,60.97-27.87,82.42-18.58,21.45-42.35,32.18-71.32,32.18s-52.41-10.76-71.05-32.27c-18.64-21.51-27.96-48.96-27.96-82.33s9.23-61.27,27.69-82.6c18.46-21.33,42.23-32,71.32-32s52.74,10.76,71.32,32.27c18.58,21.51,27.87,48.96,27.87,82.33Zm-99.19,88.74c20.54,0,36.7-7.87,48.5-23.61,11.79-15.74,17.69-37.45,17.69-65.13s-5.9-49.39-17.69-65.13c-11.8-15.74-27.96-23.61-48.5-23.61s-36.83,7.81-48.5,23.43c-11.67,15.62-17.51,37.39-17.51,65.31s5.9,49.39,17.69,65.13c11.79,15.74,27.9,23.61,48.31,23.61Z"/><path class="cls-3" d="m1447.72,1580.79h22.92c6.6,0,11.3.98,14.12,2.93,2.81,1.96,4.22,5.2,4.22,9.72,0,5.01-1.32,8.46-3.94,10.36-2.63,1.89-8.41,2.84-17.33,2.84h-54.46c-4.4,0-7.7-1.1-9.9-3.3s-3.3-5.5-3.3-9.9c0-4.89,1.25-8.22,3.76-9.99,2.5-1.77,7.36-2.66,14.58-2.66h3.48v-165.2h-4.58c-10.27,0-17.21-.98-20.81-2.93-3.61-1.96-5.41-5.38-5.41-10.27,0-4.52,1.56-7.79,4.68-9.81s8.16-3.03,15.13-3.03c4.89-.24,8.55-.37,11-.37h17.24c5.62,0,9.56.64,11.83,1.93,2.26,1.28,4.92,4.55,7.98,9.81l92.41,159.52v-144.85h-20.17c-6.6,0-11.4-1.07-14.39-3.21-3-2.14-4.49-5.47-4.49-9.99,0-5.01,1.28-8.46,3.85-10.36s7.94-2.84,16.14-2.84h52.62c4.4,0,7.67,1.1,9.81,3.3,2.14,2.2,3.21,5.5,3.21,9.9,0,4.89-1.32,8.31-3.94,10.27-2.63,1.96-7.43,2.93-14.39,2.93h-2.2v184.64c0,3.54-.83,5.99-2.48,7.33s-5.47,2.02-11.46,2.02-9.69-.34-11.09-1.01c-1.41-.67-3.76-3.82-7.06-9.44l-97.54-168.14v149.8Z"/><path class="cls-3" d="m2006.22,1395.23c1.22-3.3,2.93-5.62,5.13-6.97s5.38-2.02,9.53-2.02c4.52,0,7.7,1.1,9.53,3.3s2.75,6.72,2.75,13.57c0,11.98.12,23.13.37,33.46.24,10.33.37,14.82.37,13.48,0,5.75-.98,9.63-2.93,11.64-1.96,2.02-5.44,3.03-10.45,3.03-8.07,0-13.33-5.75-15.77-17.24-.86-3.42-1.53-6.05-2.02-7.88-2.32-9.17-7.88-16.65-16.69-22.46-8.8-5.81-19.13-8.71-30.99-8.71-21.64,0-38.99,7.9-52.07,23.72-13.08,15.81-19.62,37.03-19.62,63.64s6.63,47.84,19.89,63.65c13.26,15.81,30.77,23.72,52.53,23.72,7.09,0,14.3-1.01,21.64-3.03,7.33-2.02,14.54-5.04,21.64-9.08,3.3-1.71,7.82-4.61,13.57-8.71,5.74-4.09,9.84-6.14,12.28-6.14,3.79,0,7,1.25,9.63,3.76,2.63,2.51,3.94,5.59,3.94,9.26s-1.44,7.19-4.31,10.55c-2.87,3.37-8.22,7.51-16.04,12.43-10.27,6.77-20.6,11.76-30.99,14.95-10.39,3.2-21.33,4.8-32.82,4.8-30.19,0-55.13-10.67-74.81-32-19.68-21.33-29.52-48.62-29.52-81.87s9.96-60.2,29.89-81.96c19.92-21.76,44.98-32.64,75.18-32.64,8.07,0,16.29.98,24.66,2.93,8.37,1.96,17.2,4.89,26.49,8.8Z"/></g><path class="cls-1" d="m2835.17,922.29l-254.19,254.19c-4.8,4.8-11.07,7.19-17.35,7.19s-12.56-2.4-17.35-7.19l-110.1-110.09c-9.59-9.59-9.59-25.12,0-34.71,9.59-9.59,25.12-9.59,34.71,0l92.75,92.75,236.84-236.84c9.59-9.59,25.12-9.59,34.71,0,9.57,9.59,9.57,25.13-.01,34.7h0Z"/><g><path class="cls-2" d="m2683.57,1453.17l-188.57,188.57c-7.63,7.63-20,7.63-27.63,0-7.62-7.63-7.62-20.01,0-27.63h0s202.39-202.39,202.39-202.39l2.63-2.48,88.54-88.54c7.63-7.63,20-7.63,27.63,0,7.62,7.63,7.62,20.01,0,27.63h0s-102.36,102.36-102.36,102.36l-2.63,2.48Z"/><path class="cls-2" d="m2656.02,1536.83l-188.57-188.57c-7.63-7.63-7.63-20,0-27.63,7.63-7.62,20.01-7.62,27.63,0h0s202.39,202.39,202.39,202.39l2.48,2.63,88.54,88.54c7.63,7.63,7.63,20,0,27.63-7.63,7.62-20.01,7.62-27.63,0h0s-102.36-102.36-102.36-102.36l-2.48-2.63Z"/></g><g><path class="cls-2" d="m2677.19,554.79l-188.57,188.57c-7.63,7.63-20,7.63-27.63,0-7.62-7.63-7.62-20.01,0-27.63h0s202.39-202.39,202.39-202.39l2.63-2.48,88.54-88.54c7.63-7.63,20-7.63,27.63,0,7.62,7.63,7.62,20.01,0,27.63h0s-102.36,102.36-102.36,102.36l-2.63,2.48Z"/><path class="cls-2" d="m2649.64,638.45l-188.57-188.57c-7.63-7.63-7.63-20,0-27.63,7.63-7.62,20.01-7.62,27.63,0h0s202.39,202.39,202.39,202.39l2.48,2.63,88.54,88.54c7.63,7.63,7.63,20,0,27.63-7.63,7.62-20.01,7.62-27.63,0h0s-102.36-102.36-102.36-102.36l-2.48-2.63Z"/></g></svg>